<svg xmlns="http://www.w3.org/2000/svg" width="32" height="32" viewBox="0 0 16 16" fill="#28a745">
  <path d="M8 2a.5.5 0 0 1 .5.5v.5h.5a.5.5 0 0 1 .5.5.5.5 0 0 1-.5.5H8.5v.5a.5.5 0 0 1-1 0V3.5H7a.5.5 0 0 1-.5-.5.5.5 0 0 1 .5-.5h.5V2.5A.5.5 0 0 1 8 2z"/>
  <path d="M8 6a.5.5 0 0 1 .5.5v.5h.5a.5.5 0 0 1 .5.5.5.5 0 0 1-.5.5H8.5v.5a.5.5 0 0 1-1 0V7.5H7a.5.5 0 0 1-.5-.5.5.5 0 0 1 .5-.5h.5V6.5A.5.5 0 0 1 8 6z"/>
  <path d="M8 10a.5.5 0 0 1 .5.5v.5h.5a.5.5 0 0 1 .5.5.5.5 0 0 1-.5.5H8.5v.5a.5.5 0 0 1-1 0V11.5H7a.5.5 0 0 1-.5-.5.5.5 0 0 1 .5-.5h.5V10.5A.5.5 0 0 1 8 10z"/>
  <path d="M8 14a.5.5 0 0 1 .5.5v.5h.5a.5.5 0 0 1 .5.5.5.5 0 0 1-.5.5H8.5v.5a.5.5 0 0 1-1 0V15.5H7a.5.5 0 0 1-.5-.5.5.5 0 0 1 .5-.5h.5V14.5A.5.5 0 0 1 8 14z"/>
</svg>